<mxfile host="app.diagrams.net" modified="2021-05-10T01:53:04.562Z" agent="5.0 (Windows NT 10.0; Win64; x64) AppleWebKit/537.36 (KHTML, like Gecko) Chrome/90.0.4430.93 Safari/537.36" etag="qPViAFf-7aNlkzPPaKaQ" version="14.6.11" type="github">
  <diagram id="C5RBs43oDa-KdzZeNtuy" name="Page-1">
    <mxGraphModel dx="981" dy="526" grid="1" gridSize="10" guides="1" tooltips="1" connect="1" arrows="1" fold="1" page="1" pageScale="1" pageWidth="827" pageHeight="1169" math="0" shadow="0">
      <root>
        <mxCell id="WIyWlLk6GJQsqaUBKTNV-0" />
        <mxCell id="WIyWlLk6GJQsqaUBKTNV-1" parent="WIyWlLk6GJQsqaUBKTNV-0" />
        <mxCell id="WYvBMiL5dnG_JooyUB5C-0" value="&lt;font style=&quot;font-size: 11px&quot;&gt;资讯附件&lt;/font&gt;" style="rounded=0;whiteSpace=wrap;html=1;" vertex="1" parent="WIyWlLk6GJQsqaUBKTNV-1">
          <mxGeometry x="370" y="432" width="90" height="48" as="geometry" />
        </mxCell>
        <mxCell id="WYvBMiL5dnG_JooyUB5C-1" value="id" style="ellipse;whiteSpace=wrap;html=1;" vertex="1" parent="WIyWlLk6GJQsqaUBKTNV-1">
          <mxGeometry x="373" y="285" width="76" height="40" as="geometry" />
        </mxCell>
        <mxCell id="WYvBMiL5dnG_JooyUB5C-3" value="" style="endArrow=none;html=1;exitX=0.5;exitY=0;exitDx=0;exitDy=0;entryX=0.5;entryY=1;entryDx=0;entryDy=0;" edge="1" parent="WIyWlLk6GJQsqaUBKTNV-1" source="WYvBMiL5dnG_JooyUB5C-0" target="WYvBMiL5dnG_JooyUB5C-1">
          <mxGeometry width="50" height="50" relative="1" as="geometry">
            <mxPoint x="367" y="390" as="sourcePoint" />
            <mxPoint x="417" y="340" as="targetPoint" />
          </mxGeometry>
        </mxCell>
        <mxCell id="WYvBMiL5dnG_JooyUB5C-4" value="资讯id" style="ellipse;whiteSpace=wrap;html=1;" vertex="1" parent="WIyWlLk6GJQsqaUBKTNV-1">
          <mxGeometry x="530" y="310" width="76" height="40" as="geometry" />
        </mxCell>
        <mxCell id="WYvBMiL5dnG_JooyUB5C-5" value="" style="endArrow=none;html=1;exitX=0.5;exitY=0;exitDx=0;exitDy=0;entryX=0.5;entryY=1;entryDx=0;entryDy=0;" edge="1" parent="WIyWlLk6GJQsqaUBKTNV-1" target="WYvBMiL5dnG_JooyUB5C-4" source="WYvBMiL5dnG_JooyUB5C-0">
          <mxGeometry width="50" height="50" relative="1" as="geometry">
            <mxPoint x="517" y="432" as="sourcePoint" />
            <mxPoint x="524" y="340" as="targetPoint" />
          </mxGeometry>
        </mxCell>
        <mxCell id="WYvBMiL5dnG_JooyUB5C-6" value="附件名称" style="ellipse;whiteSpace=wrap;html=1;" vertex="1" parent="WIyWlLk6GJQsqaUBKTNV-1">
          <mxGeometry x="150" y="323" width="76" height="40" as="geometry" />
        </mxCell>
        <mxCell id="WYvBMiL5dnG_JooyUB5C-7" value="" style="endArrow=none;html=1;exitX=0;exitY=0.5;exitDx=0;exitDy=0;entryX=0.5;entryY=1;entryDx=0;entryDy=0;" edge="1" parent="WIyWlLk6GJQsqaUBKTNV-1" target="WYvBMiL5dnG_JooyUB5C-6" source="WYvBMiL5dnG_JooyUB5C-0">
          <mxGeometry width="50" height="50" relative="1" as="geometry">
            <mxPoint x="187" y="470" as="sourcePoint" />
            <mxPoint x="194" y="378" as="targetPoint" />
          </mxGeometry>
        </mxCell>
        <mxCell id="WYvBMiL5dnG_JooyUB5C-8" value="附件路径" style="ellipse;whiteSpace=wrap;html=1;" vertex="1" parent="WIyWlLk6GJQsqaUBKTNV-1">
          <mxGeometry x="250" y="285" width="76" height="40" as="geometry" />
        </mxCell>
        <mxCell id="WYvBMiL5dnG_JooyUB5C-9" value="" style="endArrow=none;html=1;exitX=0.375;exitY=0;exitDx=0;exitDy=0;entryX=0.5;entryY=1;entryDx=0;entryDy=0;exitPerimeter=0;" edge="1" parent="WIyWlLk6GJQsqaUBKTNV-1" target="WYvBMiL5dnG_JooyUB5C-8" source="WYvBMiL5dnG_JooyUB5C-0">
          <mxGeometry width="50" height="50" relative="1" as="geometry">
            <mxPoint x="287" y="432" as="sourcePoint" />
            <mxPoint x="294" y="340" as="targetPoint" />
          </mxGeometry>
        </mxCell>
        <mxCell id="WYvBMiL5dnG_JooyUB5C-10" value="附件类型" style="ellipse;whiteSpace=wrap;html=1;" vertex="1" parent="WIyWlLk6GJQsqaUBKTNV-1">
          <mxGeometry x="580" y="440" width="76" height="40" as="geometry" />
        </mxCell>
        <mxCell id="WYvBMiL5dnG_JooyUB5C-11" value="" style="endArrow=none;html=1;entryX=0;entryY=0.5;entryDx=0;entryDy=0;" edge="1" parent="WIyWlLk6GJQsqaUBKTNV-1" target="WYvBMiL5dnG_JooyUB5C-10" source="WYvBMiL5dnG_JooyUB5C-0">
          <mxGeometry width="50" height="50" relative="1" as="geometry">
            <mxPoint x="627" y="432" as="sourcePoint" />
            <mxPoint x="634" y="340" as="targetPoint" />
          </mxGeometry>
        </mxCell>
        <mxCell id="WYvBMiL5dnG_JooyUB5C-12" value="创建人" style="ellipse;whiteSpace=wrap;html=1;" vertex="1" parent="WIyWlLk6GJQsqaUBKTNV-1">
          <mxGeometry x="380" y="600" width="76" height="40" as="geometry" />
        </mxCell>
        <mxCell id="WYvBMiL5dnG_JooyUB5C-13" value="" style="endArrow=none;html=1;exitX=0.587;exitY=1.015;exitDx=0;exitDy=0;entryX=0.5;entryY=0;entryDx=0;entryDy=0;exitPerimeter=0;" edge="1" parent="WIyWlLk6GJQsqaUBKTNV-1" target="WYvBMiL5dnG_JooyUB5C-12" source="WYvBMiL5dnG_JooyUB5C-0">
          <mxGeometry width="50" height="50" relative="1" as="geometry">
            <mxPoint x="457" y="757" as="sourcePoint" />
            <mxPoint x="464" y="665" as="targetPoint" />
          </mxGeometry>
        </mxCell>
        <mxCell id="WYvBMiL5dnG_JooyUB5C-15" value="更新时间" style="ellipse;whiteSpace=wrap;html=1;" vertex="1" parent="WIyWlLk6GJQsqaUBKTNV-1">
          <mxGeometry x="150" y="585" width="76" height="40" as="geometry" />
        </mxCell>
        <mxCell id="WYvBMiL5dnG_JooyUB5C-16" value="" style="endArrow=none;html=1;exitX=0.25;exitY=1;exitDx=0;exitDy=0;entryX=1;entryY=0.5;entryDx=0;entryDy=0;" edge="1" parent="WIyWlLk6GJQsqaUBKTNV-1" target="WYvBMiL5dnG_JooyUB5C-15" source="WYvBMiL5dnG_JooyUB5C-0">
          <mxGeometry width="50" height="50" relative="1" as="geometry">
            <mxPoint x="243" y="677" as="sourcePoint" />
            <mxPoint x="250" y="585" as="targetPoint" />
          </mxGeometry>
        </mxCell>
        <mxCell id="WYvBMiL5dnG_JooyUB5C-17" value="更新人" style="ellipse;whiteSpace=wrap;html=1;" vertex="1" parent="WIyWlLk6GJQsqaUBKTNV-1">
          <mxGeometry x="130" y="440" width="76" height="40" as="geometry" />
        </mxCell>
        <mxCell id="WYvBMiL5dnG_JooyUB5C-18" value="" style="endArrow=none;html=1;exitX=0;exitY=0.75;exitDx=0;exitDy=0;entryX=1;entryY=0.5;entryDx=0;entryDy=0;" edge="1" parent="WIyWlLk6GJQsqaUBKTNV-1" target="WYvBMiL5dnG_JooyUB5C-17" source="WYvBMiL5dnG_JooyUB5C-0">
          <mxGeometry width="50" height="50" relative="1" as="geometry">
            <mxPoint x="177" y="627" as="sourcePoint" />
            <mxPoint x="184" y="535" as="targetPoint" />
            <Array as="points" />
          </mxGeometry>
        </mxCell>
        <mxCell id="WYvBMiL5dnG_JooyUB5C-19" value="有效标识" style="ellipse;whiteSpace=wrap;html=1;" vertex="1" parent="WIyWlLk6GJQsqaUBKTNV-1">
          <mxGeometry x="260" y="600" width="76" height="40" as="geometry" />
        </mxCell>
        <mxCell id="WYvBMiL5dnG_JooyUB5C-20" value="" style="endArrow=none;html=1;entryX=0.637;entryY=0.057;entryDx=0;entryDy=0;entryPerimeter=0;" edge="1" parent="WIyWlLk6GJQsqaUBKTNV-1" target="WYvBMiL5dnG_JooyUB5C-19" source="WYvBMiL5dnG_JooyUB5C-0">
          <mxGeometry width="50" height="50" relative="1" as="geometry">
            <mxPoint x="331" y="747" as="sourcePoint" />
            <mxPoint x="338" y="655" as="targetPoint" />
          </mxGeometry>
        </mxCell>
        <mxCell id="WYvBMiL5dnG_JooyUB5C-21" value="创建时间" style="ellipse;whiteSpace=wrap;html=1;" vertex="1" parent="WIyWlLk6GJQsqaUBKTNV-1">
          <mxGeometry x="530" y="585" width="76" height="40" as="geometry" />
        </mxCell>
        <mxCell id="WYvBMiL5dnG_JooyUB5C-22" value="" style="endArrow=none;html=1;exitX=0.699;exitY=0.996;exitDx=0;exitDy=0;entryX=0.5;entryY=0;entryDx=0;entryDy=0;exitPerimeter=0;" edge="1" parent="WIyWlLk6GJQsqaUBKTNV-1" target="WYvBMiL5dnG_JooyUB5C-21" source="WYvBMiL5dnG_JooyUB5C-0">
          <mxGeometry width="50" height="50" relative="1" as="geometry">
            <mxPoint x="567" y="767" as="sourcePoint" />
            <mxPoint x="574" y="675" as="targetPoint" />
          </mxGeometry>
        </mxCell>
      </root>
    </mxGraphModel>
  </diagram>
</mxfile>
